<?xml version="1.0" standalone="no"?>
<!DOCTYPE svg PUBLIC "-//W3C//DTD SVG 20010904//EN"
 "http://www.w3.org/TR/2001/REC-SVG-20010904/DTD/svg10.dtd">
<svg version="1.0" xmlns="http://www.w3.org/2000/svg"
 width="300.000000pt" height="300.000000pt" viewBox="0 0 300.000000 300.000000"
 preserveAspectRatio="xMidYMid meet">
<metadata>
Created by potrace 1.14, written by Peter Selinger 2001-2017
</metadata>
<g transform="translate(0.000000,300.000000) scale(0.100000,-0.100000)"
fill="#000000" stroke="none">
<path d="M2047 2450 c-14 -11 -31 -37 -38 -58 -35 -108 -87 -217 -141 -297
-63 -92 -73 -129 -48 -161 36 -42 96 -36 138 14 l23 27 -6 -120 c-3 -66 -11
-164 -17 -218 -12 -111 -5 -138 42 -157 35 -15 80 6 98 44 6 14 18 115 27 223
8 109 22 260 30 335 8 75 15 183 15 238 0 94 -2 103 -25 125 -29 30 -64 32
-98 5z"/>
<path d="M1458 2053 c-14 -16 -31 -38 -37 -51 -18 -35 -54 -44 -203 -52 -115
-6 -144 -11 -185 -31 -57 -28 -58 -31 -72 -194 -14 -157 -69 -376 -120 -481
-48 -97 -143 -205 -212 -239 -26 -14 -78 -36 -115 -50 -86 -32 -94 -40 -94
-85 0 -30 6 -43 26 -59 44 -35 90 -27 216 33 120 57 138 61 393 86 117 12 266
42 318 64 54 23 97 84 97 137 0 31 -44 69 -80 69 -29 0 -47 -13 -87 -63 -16
-21 -130 -45 -258 -56 -60 -5 -111 -7 -113 -6 -2 2 8 20 22 42 29 44 67 133
93 217 l18 58 98 2 c95 1 100 2 123 29 31 36 31 71 -1 102 -22 23 -32 25 -106
25 l-81 0 6 28 c3 15 9 63 12 107 4 44 11 85 15 91 5 6 62 14 128 18 192 11
257 41 306 141 30 60 28 92 -5 125 -29 29 -71 25 -102 -7z"/>
<path d="M2330 1584 c-108 -18 -173 -59 -228 -148 -37 -58 -123 -263 -167
-396 -15 -44 -20 -51 -25 -35 -12 31 -39 230 -46 335 -4 58 -12 106 -22 122
-31 53 -103 56 -137 5 -8 -13 -33 -87 -55 -164 -22 -77 -65 -206 -95 -286 -30
-80 -55 -156 -55 -170 0 -29 32 -73 60 -82 38 -12 77 21 99 82 53 146 75 193
83 181 4 -7 8 -23 8 -34 0 -12 14 -66 31 -120 37 -115 68 -154 122 -154 66 0
114 62 162 210 46 139 123 339 152 392 38 71 72 95 140 104 63 8 113 44 113
83 0 49 -69 86 -140 75z"/>
</g>
</svg>
